<?xml version="1.0"?>
<!-- Generated by SVGo -->
<svg width="171.927mm" height="105.252mm"
     viewBox="0.000 0.000 171.927 105.252"
     xmlns="http://www.w3.org/2000/svg" 
     xmlns:xlink="http://www.w3.org/1999/xlink">
<polygon points="166.927,100.251 5.001,100.251 5.001,5.001 166.927,5.001" style="fill:none;stroke-width:0.050000mm;stroke:black"/>
<polygon points="114.682,83.726 114.682,88.426 113.157,88.426 113.157,85.196 111.432,85.196 111.432,84.275 108.132,84.275 108.132,85.196 106.407,85.196 106.407,88.426 105.582,88.426 105.582,91.226 106.407,91.226 106.407,97.495 108.132,97.495 108.132,98.476 111.432,98.476 111.432,97.495 113.157,97.495 113.157,93.025 114.682,93.025 114.682,97.726 128.682,97.726 128.682,93.025 130.206,93.025 130.206,97.495 131.932,97.495 131.932,98.476 135.232,98.476 135.232,97.495 136.957,97.495 136.957,91.226 137.782,91.226 137.782,88.426 136.957,88.426 136.957,85.196 135.232,85.196 135.232,84.275 131.932,84.275 131.932,85.196 130.206,85.196 130.206,88.426 128.682,88.426 128.682,83.726" style="fill:none;stroke-width:0.050000mm;stroke:black"/>
<polygon points="7.526,83.726 7.526,97.726 21.526,97.726 21.526,83.726" style="fill:none;stroke-width:0.050000mm;stroke:black"/>
<polygon points="33.719,83.726 33.719,97.726 47.719,97.726 47.719,83.726" style="fill:none;stroke-width:0.050000mm;stroke:black"/>
<polygon points="57.532,83.726 57.532,97.726 71.532,97.726 71.532,83.726" style="fill:none;stroke-width:0.050000mm;stroke:black"/>
<polygon points="81.344,83.726 81.344,97.726 95.344,97.726 95.344,83.726" style="fill:none;stroke-width:0.050000mm;stroke:black"/>
<polygon points="148.019,83.726 148.019,97.726 162.019,97.726 162.019,83.726" style="fill:none;stroke-width:0.050000mm;stroke:black"/>
<polygon points="43.244,64.676 43.244,69.376 41.719,69.376 41.719,66.146 39.994,66.146 39.994,65.225 36.694,65.225 36.694,66.146 34.969,66.146 34.969,69.376 34.144,69.376 34.144,72.176 34.969,72.176 34.969,78.446 36.694,78.446 36.694,79.426 39.994,79.426 39.994,78.446 41.719,78.446 41.719,73.976 43.244,73.976 43.244,78.676 57.244,78.676 57.244,73.976 58.769,73.976 58.769,78.446 60.494,78.446 60.494,79.426 63.794,79.426 63.794,78.446 65.519,78.446 65.519,72.176 66.344,72.176 66.344,69.376 65.519,69.376 65.519,66.146 63.794,66.146 63.794,65.225 60.494,65.225 60.494,66.146 58.769,66.146 58.769,69.376 57.244,69.376 57.244,64.676" style="fill:none;stroke-width:0.050000mm;stroke:black"/>
<polygon points="7.526,64.676 7.526,78.676 21.526,78.676 21.526,64.676" style="fill:none;stroke-width:0.050000mm;stroke:black"/>
<polygon points="74.201,64.676 74.201,78.676 88.201,78.676 88.201,64.676" style="fill:none;stroke-width:0.050000mm;stroke:black"/>
<polygon points="93.251,64.676 93.251,78.676 107.251,78.676 107.251,64.676" style="fill:none;stroke-width:0.050000mm;stroke:black"/>
<polygon points="112.301,64.676 112.301,78.676 126.301,78.676 126.301,64.676" style="fill:none;stroke-width:0.050000mm;stroke:black"/>
<polygon points="131.351,64.676 131.351,78.676 145.351,78.676 145.351,64.676" style="fill:none;stroke-width:0.050000mm;stroke:black"/>
<polygon points="150.401,64.676 150.401,78.676 164.401,78.676 164.401,64.676" style="fill:none;stroke-width:0.050000mm;stroke:black"/>
<polygon points="7.526,45.626 7.526,59.626 21.526,59.626 21.526,45.626" style="fill:none;stroke-width:0.050000mm;stroke:black"/>
<polygon points="38.482,45.626 38.482,59.626 52.482,59.626 52.482,45.626" style="fill:none;stroke-width:0.050000mm;stroke:black"/>
<polygon points="64.676,45.626 64.676,59.626 78.676,59.626 78.676,45.626" style="fill:none;stroke-width:0.050000mm;stroke:black"/>
<polygon points="83.726,45.626 83.726,59.626 97.726,59.626 97.726,45.626" style="fill:none;stroke-width:0.050000mm;stroke:black"/>
<polygon points="102.776,45.626 102.776,59.626 116.776,59.626 116.776,45.626" style="fill:none;stroke-width:0.050000mm;stroke:black"/>
<polygon points="121.826,45.626 121.826,59.626 135.826,59.626 135.826,45.626" style="fill:none;stroke-width:0.050000mm;stroke:black"/>
<polygon points="140.876,45.626 140.876,59.626 154.876,59.626 154.876,45.626" style="fill:none;stroke-width:0.050000mm;stroke:black"/>
<polygon points="7.526,26.576 7.526,40.576 21.526,40.576 21.526,26.576" style="fill:none;stroke-width:0.050000mm;stroke:black"/>
<polygon points="36.101,26.576 36.101,40.576 50.101,40.576 50.101,26.576" style="fill:none;stroke-width:0.050000mm;stroke:black"/>
<polygon points="59.913,26.576 59.913,40.576 73.913,40.576 73.913,26.576" style="fill:none;stroke-width:0.050000mm;stroke:black"/>
<polygon points="78.963,26.576 78.963,40.576 92.963,40.576 92.963,26.576" style="fill:none;stroke-width:0.050000mm;stroke:black"/>
<polygon points="98.013,26.576 98.013,40.576 112.013,40.576 112.013,26.576" style="fill:none;stroke-width:0.050000mm;stroke:black"/>
<polygon points="117.063,26.576 117.063,40.576 131.063,40.576 131.063,26.576" style="fill:none;stroke-width:0.050000mm;stroke:black"/>
<polygon points="136.113,26.576 136.113,40.576 150.113,40.576 150.113,26.576" style="fill:none;stroke-width:0.050000mm;stroke:black"/>
<polygon points="7.526,7.526 7.526,21.526 21.526,21.526 21.526,7.526" style="fill:none;stroke-width:0.050000mm;stroke:black"/>
<polygon points="31.338,7.526 31.338,21.526 45.338,21.526 45.338,7.526" style="fill:none;stroke-width:0.050000mm;stroke:black"/>
<polygon points="50.388,7.526 50.388,21.526 64.388,21.526 64.388,7.526" style="fill:none;stroke-width:0.050000mm;stroke:black"/>
<polygon points="69.438,7.526 69.438,21.526 83.438,21.526 83.438,7.526" style="fill:none;stroke-width:0.050000mm;stroke:black"/>
<polygon points="88.488,7.526 88.488,21.526 102.488,21.526 102.488,7.526" style="fill:none;stroke-width:0.050000mm;stroke:black"/>
<polygon points="107.538,7.526 107.538,21.526 121.538,21.526 121.538,7.526" style="fill:none;stroke-width:0.050000mm;stroke:black"/>
<polygon points="126.588,7.526 126.588,21.526 140.588,21.526 140.588,7.526" style="fill:none;stroke-width:0.050000mm;stroke:black"/>
<polygon points="145.638,7.526 145.638,21.526 159.638,21.526 159.638,7.526" style="fill:none;stroke-width:0.050000mm;stroke:black"/>
</svg>
