  0
SECTION
  2
HEADER
  9
$ACADVER
  1
AC1009
  9
$FILLMODE
 70
 0
  9
$SPLFRAME
 70
 1
  9
$EXTMIN
 10
0
 20
0
 30
0.0
  9
$EXTMAX
 10
1058.33
 20
1058.33
 30
0.0
  0
ENDSEC
  0
SECTION
  2
TABLES
  0
TABLE
  2
LAYER
 70
1
  0
LAYER
  2
0
 70
     0
 62
     7
  6
CONTINUOUS
  0
ENDTAB
  0
ENDSEC
  0
SECTION
  2
ENTITIES
  0
LINE
  8
0
 62
     0
 10
0.0950846
 20
95.5075
 30
0.0
 11
162.02
 21
95.5075
 31
0.0
  0
LINE
  8
0
 62
     0
 10
162.02
 20
95.5075
 30
0.0
 11
162.02
 21
0.257693
 31
0.0
  0
LINE
  8
0
 62
     0
 10
162.02
 20
0.257693
 30
0.0
 11
0.0950846
 21
0.257693
 31
0.0
  0
LINE
  8
0
 62
     0
 10
0.0950846
 20
0.257693
 30
0.0
 11
0.0950846
 21
95.5075
 31
0.0
  0
LINE
  8
0
 62
     0
 10
109.776
 20
16.7831
 30
0.0
 11
109.776
 21
12.0826
 31
0.0
  0
LINE
  8
0
 62
     0
 10
109.776
 20
12.0826
 30
0.0
 11
108.251
 21
12.0826
 31
0.0
  0
LINE
  8
0
 62
     0
 10
108.251
 20
12.0826
 30
0.0
 11
108.251
 21
15.3128
 31
0.0
  0
LINE
  8
0
 62
     0
 10
108.251
 20
15.3128
 30
0.0
 11
106.525
 21
15.3128
 31
0.0
  0
LINE
  8
0
 62
     0
 10
106.525
 20
15.3128
 30
0.0
 11
106.525
 21
16.2347
 31
0.0
  0
LINE
  8
0
 62
     0
 10
106.525
 20
16.2347
 30
0.0
 11
103.226
 21
16.2347
 31
0.0
  0
LINE
  8
0
 62
     0
 10
103.226
 20
16.2347
 30
0.0
 11
103.226
 21
15.3128
 31
0.0
  0
LINE
  8
0
 62
     0
 10
103.226
 20
15.3128
 30
0.0
 11
101.501
 21
15.3128
 31
0.0
  0
LINE
  8
0
 62
     0
 10
101.501
 20
15.3128
 30
0.0
 11
101.501
 21
12.0826
 31
0.0
  0
LINE
  8
0
 62
     0
 10
101.501
 20
12.0826
 30
0.0
 11
100.675
 21
12.0826
 31
0.0
  0
LINE
  8
0
 62
     0
 10
100.675
 20
12.0826
 30
0.0
 11
100.675
 21
9.28384
 31
0.0
  0
LINE
  8
0
 62
     0
 10
100.675
 20
9.28384
 30
0.0
 11
101.501
 21
9.28384
 31
0.0
  0
LINE
  8
0
 62
     0
 10
101.501
 20
9.28384
 30
0.0
 11
101.501
 21
3.01377
 31
0.0
  0
LINE
  8
0
 62
     0
 10
101.501
 20
3.01377
 30
0.0
 11
103.226
 21
3.01377
 31
0.0
  0
LINE
  8
0
 62
     0
 10
103.226
 20
3.01377
 30
0.0
 11
103.226
 21
2.03261
 31
0.0
  0
LINE
  8
0
 62
     0
 10
103.226
 20
2.03261
 30
0.0
 11
106.525
 21
2.03261
 31
0.0
  0
LINE
  8
0
 62
     0
 10
106.525
 20
2.03261
 30
0.0
 11
106.525
 21
3.01377
 31
0.0
  0
LINE
  8
0
 62
     0
 10
106.525
 20
3.01377
 30
0.0
 11
108.251
 21
3.01377
 31
0.0
  0
LINE
  8
0
 62
     0
 10
108.251
 20
3.01377
 30
0.0
 11
108.251
 21
7.48411
 31
0.0
  0
LINE
  8
0
 62
     0
 10
108.251
 20
7.48411
 30
0.0
 11
109.776
 21
7.48411
 31
0.0
  0
LINE
  8
0
 62
     0
 10
109.776
 20
7.48411
 30
0.0
 11
109.776
 21
2.78364
 31
0.0
  0
LINE
  8
0
 62
     0
 10
109.776
 20
2.78364
 30
0.0
 11
123.775
 21
2.78364
 31
0.0
  0
LINE
  8
0
 62
     0
 10
123.775
 20
2.78364
 30
0.0
 11
123.775
 21
7.48411
 31
0.0
  0
LINE
  8
0
 62
     0
 10
123.775
 20
7.48411
 30
0.0
 11
125.3
 21
7.48411
 31
0.0
  0
LINE
  8
0
 62
     0
 10
125.3
 20
7.48411
 30
0.0
 11
125.3
 21
3.01377
 31
0.0
  0
LINE
  8
0
 62
     0
 10
125.3
 20
3.01377
 30
0.0
 11
127.025
 21
3.01377
 31
0.0
  0
LINE
  8
0
 62
     0
 10
127.025
 20
3.01377
 30
0.0
 11
127.025
 21
2.03261
 31
0.0
  0
LINE
  8
0
 62
     0
 10
127.025
 20
2.03261
 30
0.0
 11
130.325
 21
2.03261
 31
0.0
  0
LINE
  8
0
 62
     0
 10
130.325
 20
2.03261
 30
0.0
 11
130.325
 21
3.01377
 31
0.0
  0
LINE
  8
0
 62
     0
 10
130.325
 20
3.01377
 30
0.0
 11
132.05
 21
3.01377
 31
0.0
  0
LINE
  8
0
 62
     0
 10
132.05
 20
3.01377
 30
0.0
 11
132.05
 21
9.28384
 31
0.0
  0
LINE
  8
0
 62
     0
 10
132.05
 20
9.28384
 30
0.0
 11
132.876
 21
9.28384
 31
0.0
  0
LINE
  8
0
 62
     0
 10
132.876
 20
9.28384
 30
0.0
 11
132.876
 21
12.0826
 31
0.0
  0
LINE
  8
0
 62
     0
 10
132.876
 20
12.0826
 30
0.0
 11
132.05
 21
12.0826
 31
0.0
  0
LINE
  8
0
 62
     0
 10
132.05
 20
12.0826
 30
0.0
 11
132.05
 21
15.3128
 31
0.0
  0
LINE
  8
0
 62
     0
 10
132.05
 20
15.3128
 30
0.0
 11
130.325
 21
15.3128
 31
0.0
  0
LINE
  8
0
 62
     0
 10
130.325
 20
15.3128
 30
0.0
 11
130.325
 21
16.2347
 31
0.0
  0
LINE
  8
0
 62
     0
 10
130.325
 20
16.2347
 30
0.0
 11
127.025
 21
16.2347
 31
0.0
  0
LINE
  8
0
 62
     0
 10
127.025
 20
16.2347
 30
0.0
 11
127.025
 21
15.3128
 31
0.0
  0
LINE
  8
0
 62
     0
 10
127.025
 20
15.3128
 30
0.0
 11
125.3
 21
15.3128
 31
0.0
  0
LINE
  8
0
 62
     0
 10
125.3
 20
15.3128
 30
0.0
 11
125.3
 21
12.0826
 31
0.0
  0
LINE
  8
0
 62
     0
 10
125.3
 20
12.0826
 30
0.0
 11
123.775
 21
12.0826
 31
0.0
  0
LINE
  8
0
 62
     0
 10
123.775
 20
12.0826
 30
0.0
 11
123.775
 21
16.7831
 31
0.0
  0
LINE
  8
0
 62
     0
 10
123.775
 20
16.7831
 30
0.0
 11
109.776
 21
16.7831
 31
0.0
  0
LINE
  8
0
 62
     0
 10
2.61965
 20
16.7831
 30
0.0
 11
16.6192
 21
16.7831
 31
0.0
  0
LINE
  8
0
 62
     0
 10
16.6192
 20
16.7831
 30
0.0
 11
16.6192
 21
2.78364
 31
0.0
  0
LINE
  8
0
 62
     0
 10
16.6192
 20
2.78364
 30
0.0
 11
2.61965
 21
2.78364
 31
0.0
  0
LINE
  8
0
 62
     0
 10
2.61965
 20
2.78364
 30
0.0
 11
2.61965
 21
16.7831
 31
0.0
  0
LINE
  8
0
 62
     0
 10
28.812
 20
16.7831
 30
0.0
 11
42.8128
 21
16.7831
 31
0.0
  0
LINE
  8
0
 62
     0
 10
42.8128
 20
16.7831
 30
0.0
 11
42.8128
 21
2.78364
 31
0.0
  0
LINE
  8
0
 62
     0
 10
42.8128
 20
2.78364
 30
0.0
 11
28.812
 21
2.78364
 31
0.0
  0
LINE
  8
0
 62
     0
 10
28.812
 20
2.78364
 30
0.0
 11
28.812
 21
16.7831
 31
0.0
  0
LINE
  8
0
 62
     0
 10
52.626
 20
16.7831
 30
0.0
 11
66.6253
 21
16.7831
 31
0.0
  0
LINE
  8
0
 62
     0
 10
66.6253
 20
16.7831
 30
0.0
 11
66.6253
 21
2.78364
 31
0.0
  0
LINE
  8
0
 62
     0
 10
66.6253
 20
2.78364
 30
0.0
 11
52.626
 21
2.78364
 31
0.0
  0
LINE
  8
0
 62
     0
 10
52.626
 20
2.78364
 30
0.0
 11
52.626
 21
16.7831
 31
0.0
  0
LINE
  8
0
 62
     0
 10
76.4371
 20
16.7831
 30
0.0
 11
90.4378
 21
16.7831
 31
0.0
  0
LINE
  8
0
 62
     0
 10
90.4378
 20
16.7831
 30
0.0
 11
90.4378
 21
2.78364
 31
0.0
  0
LINE
  8
0
 62
     0
 10
90.4378
 20
2.78364
 30
0.0
 11
76.4371
 21
2.78364
 31
0.0
  0
LINE
  8
0
 62
     0
 10
76.4371
 20
2.78364
 30
0.0
 11
76.4371
 21
16.7831
 31
0.0
  0
LINE
  8
0
 62
     0
 10
143.112
 20
16.7831
 30
0.0
 11
157.113
 21
16.7831
 31
0.0
  0
LINE
  8
0
 62
     0
 10
157.113
 20
16.7831
 30
0.0
 11
157.113
 21
2.78364
 31
0.0
  0
LINE
  8
0
 62
     0
 10
157.113
 20
2.78364
 30
0.0
 11
143.112
 21
2.78364
 31
0.0
  0
LINE
  8
0
 62
     0
 10
143.112
 20
2.78364
 30
0.0
 11
143.112
 21
16.7831
 31
0.0
  0
LINE
  8
0
 62
     0
 10
38.3371
 20
35.833
 30
0.0
 11
38.3371
 21
31.1326
 31
0.0
  0
LINE
  8
0
 62
     0
 10
38.3371
 20
31.1326
 30
0.0
 11
36.8131
 21
31.1326
 31
0.0
  0
LINE
  8
0
 62
     0
 10
36.8131
 20
31.1326
 30
0.0
 11
36.8131
 21
34.3628
 31
0.0
  0
LINE
  8
0
 62
     0
 10
36.8131
 20
34.3628
 30
0.0
 11
35.0876
 21
34.3628
 31
0.0
  0
LINE
  8
0
 62
     0
 10
35.0876
 20
34.3628
 30
0.0
 11
35.0876
 21
35.2848
 31
0.0
  0
LINE
  8
0
 62
     0
 10
35.0876
 20
35.2848
 30
0.0
 11
31.7872
 21
35.2848
 31
0.0
  0
LINE
  8
0
 62
     0
 10
31.7872
 20
35.2848
 30
0.0
 11
31.7872
 21
34.3628
 31
0.0
  0
LINE
  8
0
 62
     0
 10
31.7872
 20
34.3628
 30
0.0
 11
30.0619
 21
34.3628
 31
0.0
  0
LINE
  8
0
 62
     0
 10
30.0619
 20
34.3628
 30
0.0
 11
30.0619
 21
31.1326
 31
0.0
  0
LINE
  8
0
 62
     0
 10
30.0619
 20
31.1326
 30
0.0
 11
29.2378
 21
31.1326
 31
0.0
  0
LINE
  8
0
 62
     0
 10
29.2378
 20
31.1326
 30
0.0
 11
29.2378
 21
28.3338
 31
0.0
  0
LINE
  8
0
 62
     0
 10
29.2378
 20
28.3338
 30
0.0
 11
30.0619
 21
28.3338
 31
0.0
  0
LINE
  8
0
 62
     0
 10
30.0619
 20
28.3338
 30
0.0
 11
30.0619
 21
22.0638
 31
0.0
  0
LINE
  8
0
 62
     0
 10
30.0619
 20
22.0638
 30
0.0
 11
31.7872
 21
22.0638
 31
0.0
  0
LINE
  8
0
 62
     0
 10
31.7872
 20
22.0638
 30
0.0
 11
31.7872
 21
21.0826
 31
0.0
  0
LINE
  8
0
 62
     0
 10
31.7872
 20
21.0826
 30
0.0
 11
35.0876
 21
21.0826
 31
0.0
  0
LINE
  8
0
 62
     0
 10
35.0876
 20
21.0826
 30
0.0
 11
35.0876
 21
22.0638
 31
0.0
  0
LINE
  8
0
 62
     0
 10
35.0876
 20
22.0638
 30
0.0
 11
36.8131
 21
22.0638
 31
0.0
  0
LINE
  8
0
 62
     0
 10
36.8131
 20
22.0638
 30
0.0
 11
36.8131
 21
26.5327
 31
0.0
  0
LINE
  8
0
 62
     0
 10
36.8131
 20
26.5327
 30
0.0
 11
38.3371
 21
26.5327
 31
0.0
  0
LINE
  8
0
 62
     0
 10
38.3371
 20
26.5327
 30
0.0
 11
38.3371
 21
21.8336
 31
0.0
  0
LINE
  8
0
 62
     0
 10
38.3371
 20
21.8336
 30
0.0
 11
52.3378
 21
21.8336
 31
0.0
  0
LINE
  8
0
 62
     0
 10
52.3378
 20
21.8336
 30
0.0
 11
52.3378
 21
26.5327
 31
0.0
  0
LINE
  8
0
 62
     0
 10
52.3378
 20
26.5327
 30
0.0
 11
53.8621
 21
26.5327
 31
0.0
  0
LINE
  8
0
 62
     0
 10
53.8621
 20
26.5327
 30
0.0
 11
53.8621
 21
22.0638
 31
0.0
  0
LINE
  8
0
 62
     0
 10
53.8621
 20
22.0638
 30
0.0
 11
55.5872
 21
22.0638
 31
0.0
  0
LINE
  8
0
 62
     0
 10
55.5872
 20
22.0638
 30
0.0
 11
55.5872
 21
21.0826
 31
0.0
  0
LINE
  8
0
 62
     0
 10
55.5872
 20
21.0826
 30
0.0
 11
58.8878
 21
21.0826
 31
0.0
  0
LINE
  8
0
 62
     0
 10
58.8878
 20
21.0826
 30
0.0
 11
58.8878
 21
22.0638
 31
0.0
  0
LINE
  8
0
 62
     0
 10
58.8878
 20
22.0638
 30
0.0
 11
60.6129
 21
22.0638
 31
0.0
  0
LINE
  8
0
 62
     0
 10
60.6129
 20
22.0638
 30
0.0
 11
60.6129
 21
28.3338
 31
0.0
  0
LINE
  8
0
 62
     0
 10
60.6129
 20
28.3338
 30
0.0
 11
61.437
 21
28.3338
 31
0.0
  0
LINE
  8
0
 62
     0
 10
61.437
 20
28.3338
 30
0.0
 11
61.437
 21
31.1326
 31
0.0
  0
LINE
  8
0
 62
     0
 10
61.437
 20
31.1326
 30
0.0
 11
60.6129
 21
31.1326
 31
0.0
  0
LINE
  8
0
 62
     0
 10
60.6129
 20
31.1326
 30
0.0
 11
60.6129
 21
34.3628
 31
0.0
  0
LINE
  8
0
 62
     0
 10
60.6129
 20
34.3628
 30
0.0
 11
58.8878
 21
34.3628
 31
0.0
  0
LINE
  8
0
 62
     0
 10
58.8878
 20
34.3628
 30
0.0
 11
58.8878
 21
35.2848
 31
0.0
  0
LINE
  8
0
 62
     0
 10
58.8878
 20
35.2848
 30
0.0
 11
55.5872
 21
35.2848
 31
0.0
  0
LINE
  8
0
 62
     0
 10
55.5872
 20
35.2848
 30
0.0
 11
55.5872
 21
34.3628
 31
0.0
  0
LINE
  8
0
 62
     0
 10
55.5872
 20
34.3628
 30
0.0
 11
53.8621
 21
34.3628
 31
0.0
  0
LINE
  8
0
 62
     0
 10
53.8621
 20
34.3628
 30
0.0
 11
53.8621
 21
31.1326
 31
0.0
  0
LINE
  8
0
 62
     0
 10
53.8621
 20
31.1326
 30
0.0
 11
52.3378
 21
31.1326
 31
0.0
  0
LINE
  8
0
 62
     0
 10
52.3378
 20
31.1326
 30
0.0
 11
52.3378
 21
35.833
 31
0.0
  0
LINE
  8
0
 62
     0
 10
52.3378
 20
35.833
 30
0.0
 11
38.3371
 21
35.833
 31
0.0
  0
LINE
  8
0
 62
     0
 10
2.61965
 20
35.833
 30
0.0
 11
16.6192
 21
35.833
 31
0.0
  0
LINE
  8
0
 62
     0
 10
16.6192
 20
35.833
 30
0.0
 11
16.6192
 21
21.8336
 31
0.0
  0
LINE
  8
0
 62
     0
 10
16.6192
 20
21.8336
 30
0.0
 11
2.61965
 21
21.8336
 31
0.0
  0
LINE
  8
0
 62
     0
 10
2.61965
 20
21.8336
 30
0.0
 11
2.61965
 21
35.833
 31
0.0
  0
LINE
  8
0
 62
     0
 10
69.2947
 20
35.833
 30
0.0
 11
83.294
 21
35.833
 31
0.0
  0
LINE
  8
0
 62
     0
 10
83.294
 20
35.833
 30
0.0
 11
83.294
 21
21.8336
 31
0.0
  0
LINE
  8
0
 62
     0
 10
83.294
 20
21.8336
 30
0.0
 11
69.2947
 21
21.8336
 31
0.0
  0
LINE
  8
0
 62
     0
 10
69.2947
 20
21.8336
 30
0.0
 11
69.2947
 21
35.833
 31
0.0
  0
LINE
  8
0
 62
     0
 10
88.3447
 20
35.833
 30
0.0
 11
102.344
 21
35.833
 31
0.0
  0
LINE
  8
0
 62
     0
 10
102.344
 20
35.833
 30
0.0
 11
102.344
 21
21.8336
 31
0.0
  0
LINE
  8
0
 62
     0
 10
102.344
 20
21.8336
 30
0.0
 11
88.3447
 21
21.8336
 31
0.0
  0
LINE
  8
0
 62
     0
 10
88.3447
 20
21.8336
 30
0.0
 11
88.3447
 21
35.833
 31
0.0
  0
LINE
  8
0
 62
     0
 10
107.395
 20
35.833
 30
0.0
 11
121.394
 21
35.833
 31
0.0
  0
LINE
  8
0
 62
     0
 10
121.394
 20
35.833
 30
0.0
 11
121.394
 21
21.8336
 31
0.0
  0
LINE
  8
0
 62
     0
 10
121.394
 20
21.8336
 30
0.0
 11
107.395
 21
21.8336
 31
0.0
  0
LINE
  8
0
 62
     0
 10
107.395
 20
21.8336
 30
0.0
 11
107.395
 21
35.833
 31
0.0
  0
LINE
  8
0
 62
     0
 10
126.445
 20
35.833
 30
0.0
 11
140.444
 21
35.833
 31
0.0
  0
LINE
  8
0
 62
     0
 10
140.444
 20
35.833
 30
0.0
 11
140.444
 21
21.8336
 31
0.0
  0
LINE
  8
0
 62
     0
 10
140.444
 20
21.8336
 30
0.0
 11
126.445
 21
21.8336
 31
0.0
  0
LINE
  8
0
 62
     0
 10
126.445
 20
21.8336
 30
0.0
 11
126.445
 21
35.833
 31
0.0
  0
LINE
  8
0
 62
     0
 10
145.495
 20
35.833
 30
0.0
 11
159.494
 21
35.833
 31
0.0
  0
LINE
  8
0
 62
     0
 10
159.494
 20
35.833
 30
0.0
 11
159.494
 21
21.8336
 31
0.0
  0
LINE
  8
0
 62
     0
 10
159.494
 20
21.8336
 30
0.0
 11
145.495
 21
21.8336
 31
0.0
  0
LINE
  8
0
 62
     0
 10
145.495
 20
21.8336
 30
0.0
 11
145.495
 21
35.833
 31
0.0
  0
LINE
  8
0
 62
     0
 10
2.61965
 20
54.8831
 30
0.0
 11
16.6192
 21
54.8831
 31
0.0
  0
LINE
  8
0
 62
     0
 10
16.6192
 20
54.8831
 30
0.0
 11
16.6192
 21
40.8838
 31
0.0
  0
LINE
  8
0
 62
     0
 10
16.6192
 20
40.8838
 30
0.0
 11
2.61965
 21
40.8838
 31
0.0
  0
LINE
  8
0
 62
     0
 10
2.61965
 20
40.8838
 30
0.0
 11
2.61965
 21
54.8831
 31
0.0
  0
LINE
  8
0
 62
     0
 10
33.5759
 20
54.8831
 30
0.0
 11
47.5753
 21
54.8831
 31
0.0
  0
LINE
  8
0
 62
     0
 10
47.5753
 20
54.8831
 30
0.0
 11
47.5753
 21
40.8838
 31
0.0
  0
LINE
  8
0
 62
     0
 10
47.5753
 20
40.8838
 30
0.0
 11
33.5759
 21
40.8838
 31
0.0
  0
LINE
  8
0
 62
     0
 10
33.5759
 20
40.8838
 30
0.0
 11
33.5759
 21
54.8831
 31
0.0
  0
LINE
  8
0
 62
     0
 10
59.7697
 20
54.8831
 30
0.0
 11
73.769
 21
54.8831
 31
0.0
  0
LINE
  8
0
 62
     0
 10
73.769
 20
54.8831
 30
0.0
 11
73.769
 21
40.8838
 31
0.0
  0
LINE
  8
0
 62
     0
 10
73.769
 20
40.8838
 30
0.0
 11
59.7697
 21
40.8838
 31
0.0
  0
LINE
  8
0
 62
     0
 10
59.7697
 20
40.8838
 30
0.0
 11
59.7697
 21
54.8831
 31
0.0
  0
LINE
  8
0
 62
     0
 10
78.8197
 20
54.8831
 30
0.0
 11
92.819
 21
54.8831
 31
0.0
  0
LINE
  8
0
 62
     0
 10
92.819
 20
54.8831
 30
0.0
 11
92.819
 21
40.8838
 31
0.0
  0
LINE
  8
0
 62
     0
 10
92.819
 20
40.8838
 30
0.0
 11
78.8197
 21
40.8838
 31
0.0
  0
LINE
  8
0
 62
     0
 10
78.8197
 20
40.8838
 30
0.0
 11
78.8197
 21
54.8831
 31
0.0
  0
LINE
  8
0
 62
     0
 10
97.8697
 20
54.8831
 30
0.0
 11
111.869
 21
54.8831
 31
0.0
  0
LINE
  8
0
 62
     0
 10
111.869
 20
54.8831
 30
0.0
 11
111.869
 21
40.8838
 31
0.0
  0
LINE
  8
0
 62
     0
 10
111.869
 20
40.8838
 30
0.0
 11
97.8697
 21
40.8838
 31
0.0
  0
LINE
  8
0
 62
     0
 10
97.8697
 20
40.8838
 30
0.0
 11
97.8697
 21
54.8831
 31
0.0
  0
LINE
  8
0
 62
     0
 10
116.92
 20
54.8831
 30
0.0
 11
130.919
 21
54.8831
 31
0.0
  0
LINE
  8
0
 62
     0
 10
130.919
 20
54.8831
 30
0.0
 11
130.919
 21
40.8838
 31
0.0
  0
LINE
  8
0
 62
     0
 10
130.919
 20
40.8838
 30
0.0
 11
116.92
 21
40.8838
 31
0.0
  0
LINE
  8
0
 62
     0
 10
116.92
 20
40.8838
 30
0.0
 11
116.92
 21
54.8831
 31
0.0
  0
LINE
  8
0
 62
     0
 10
135.97
 20
54.8831
 30
0.0
 11
149.969
 21
54.8831
 31
0.0
  0
LINE
  8
0
 62
     0
 10
149.969
 20
54.8831
 30
0.0
 11
149.969
 21
40.8838
 31
0.0
  0
LINE
  8
0
 62
     0
 10
149.969
 20
40.8838
 30
0.0
 11
135.97
 21
40.8838
 31
0.0
  0
LINE
  8
0
 62
     0
 10
135.97
 20
40.8838
 30
0.0
 11
135.97
 21
54.8831
 31
0.0
  0
LINE
  8
0
 62
     0
 10
2.61965
 20
73.9331
 30
0.0
 11
16.6192
 21
73.9331
 31
0.0
  0
LINE
  8
0
 62
     0
 10
16.6192
 20
73.9331
 30
0.0
 11
16.6192
 21
59.9338
 31
0.0
  0
LINE
  8
0
 62
     0
 10
16.6192
 20
59.9338
 30
0.0
 11
2.61965
 21
59.9338
 31
0.0
  0
LINE
  8
0
 62
     0
 10
2.61965
 20
59.9338
 30
0.0
 11
2.61965
 21
73.9331
 31
0.0
  0
LINE
  8
0
 62
     0
 10
31.1947
 20
73.9331
 30
0.0
 11
45.194
 21
73.9331
 31
0.0
  0
LINE
  8
0
 62
     0
 10
45.194
 20
73.9331
 30
0.0
 11
45.194
 21
59.9338
 31
0.0
  0
LINE
  8
0
 62
     0
 10
45.194
 20
59.9338
 30
0.0
 11
31.1947
 21
59.9338
 31
0.0
  0
LINE
  8
0
 62
     0
 10
31.1947
 20
59.9338
 30
0.0
 11
31.1947
 21
73.9331
 31
0.0
  0
LINE
  8
0
 62
     0
 10
55.0072
 20
73.9331
 30
0.0
 11
69.0065
 21
73.9331
 31
0.0
  0
LINE
  8
0
 62
     0
 10
69.0065
 20
73.9331
 30
0.0
 11
69.0065
 21
59.9338
 31
0.0
  0
LINE
  8
0
 62
     0
 10
69.0065
 20
59.9338
 30
0.0
 11
55.0072
 21
59.9338
 31
0.0
  0
LINE
  8
0
 62
     0
 10
55.0072
 20
59.9338
 30
0.0
 11
55.0072
 21
73.9331
 31
0.0
  0
LINE
  8
0
 62
     0
 10
74.0572
 20
73.9331
 30
0.0
 11
88.0565
 21
73.9331
 31
0.0
  0
LINE
  8
0
 62
     0
 10
88.0565
 20
73.9331
 30
0.0
 11
88.0565
 21
59.9338
 31
0.0
  0
LINE
  8
0
 62
     0
 10
88.0565
 20
59.9338
 30
0.0
 11
74.0572
 21
59.9338
 31
0.0
  0
LINE
  8
0
 62
     0
 10
74.0572
 20
59.9338
 30
0.0
 11
74.0572
 21
73.9331
 31
0.0
  0
LINE
  8
0
 62
     0
 10
93.1072
 20
73.9331
 30
0.0
 11
107.107
 21
73.9331
 31
0.0
  0
LINE
  8
0
 62
     0
 10
107.107
 20
73.9331
 30
0.0
 11
107.107
 21
59.9338
 31
0.0
  0
LINE
  8
0
 62
     0
 10
107.107
 20
59.9338
 30
0.0
 11
93.1072
 21
59.9338
 31
0.0
  0
LINE
  8
0
 62
     0
 10
93.1072
 20
59.9338
 30
0.0
 11
93.1072
 21
73.9331
 31
0.0
  0
LINE
  8
0
 62
     0
 10
112.157
 20
73.9331
 30
0.0
 11
126.157
 21
73.9331
 31
0.0
  0
LINE
  8
0
 62
     0
 10
126.157
 20
73.9331
 30
0.0
 11
126.157
 21
59.9338
 31
0.0
  0
LINE
  8
0
 62
     0
 10
126.157
 20
59.9338
 30
0.0
 11
112.157
 21
59.9338
 31
0.0
  0
LINE
  8
0
 62
     0
 10
112.157
 20
59.9338
 30
0.0
 11
112.157
 21
73.9331
 31
0.0
  0
LINE
  8
0
 62
     0
 10
131.207
 20
73.9331
 30
0.0
 11
145.207
 21
73.9331
 31
0.0
  0
LINE
  8
0
 62
     0
 10
145.207
 20
73.9331
 30
0.0
 11
145.207
 21
59.9338
 31
0.0
  0
LINE
  8
0
 62
     0
 10
145.207
 20
59.9338
 30
0.0
 11
131.207
 21
59.9338
 31
0.0
  0
LINE
  8
0
 62
     0
 10
131.207
 20
59.9338
 30
0.0
 11
131.207
 21
73.9331
 31
0.0
  0
LINE
  8
0
 62
     0
 10
2.61965
 20
92.9831
 30
0.0
 11
16.6192
 21
92.9831
 31
0.0
  0
LINE
  8
0
 62
     0
 10
16.6192
 20
92.9831
 30
0.0
 11
16.6192
 21
78.9838
 31
0.0
  0
LINE
  8
0
 62
     0
 10
16.6192
 20
78.9838
 30
0.0
 11
2.61965
 21
78.9838
 31
0.0
  0
LINE
  8
0
 62
     0
 10
2.61965
 20
78.9838
 30
0.0
 11
2.61965
 21
92.9831
 31
0.0
  0
LINE
  8
0
 62
     0
 10
26.4322
 20
92.9831
 30
0.0
 11
40.4315
 21
92.9831
 31
0.0
  0
LINE
  8
0
 62
     0
 10
40.4315
 20
92.9831
 30
0.0
 11
40.4315
 21
78.9838
 31
0.0
  0
LINE
  8
0
 62
     0
 10
40.4315
 20
78.9838
 30
0.0
 11
26.4322
 21
78.9838
 31
0.0
  0
LINE
  8
0
 62
     0
 10
26.4322
 20
78.9838
 30
0.0
 11
26.4322
 21
92.9831
 31
0.0
  0
LINE
  8
0
 62
     0
 10
45.4822
 20
92.9831
 30
0.0
 11
59.4815
 21
92.9831
 31
0.0
  0
LINE
  8
0
 62
     0
 10
59.4815
 20
92.9831
 30
0.0
 11
59.4815
 21
78.9838
 31
0.0
  0
LINE
  8
0
 62
     0
 10
59.4815
 20
78.9838
 30
0.0
 11
45.4822
 21
78.9838
 31
0.0
  0
LINE
  8
0
 62
     0
 10
45.4822
 20
78.9838
 30
0.0
 11
45.4822
 21
92.9831
 31
0.0
  0
LINE
  8
0
 62
     0
 10
64.5322
 20
92.9831
 30
0.0
 11
78.5315
 21
92.9831
 31
0.0
  0
LINE
  8
0
 62
     0
 10
78.5315
 20
92.9831
 30
0.0
 11
78.5315
 21
78.9838
 31
0.0
  0
LINE
  8
0
 62
     0
 10
78.5315
 20
78.9838
 30
0.0
 11
64.5322
 21
78.9838
 31
0.0
  0
LINE
  8
0
 62
     0
 10
64.5322
 20
78.9838
 30
0.0
 11
64.5322
 21
92.9831
 31
0.0
  0
LINE
  8
0
 62
     0
 10
83.5822
 20
92.9831
 30
0.0
 11
97.5815
 21
92.9831
 31
0.0
  0
LINE
  8
0
 62
     0
 10
97.5815
 20
92.9831
 30
0.0
 11
97.5815
 21
78.9838
 31
0.0
  0
LINE
  8
0
 62
     0
 10
97.5815
 20
78.9838
 30
0.0
 11
83.5822
 21
78.9838
 31
0.0
  0
LINE
  8
0
 62
     0
 10
83.5822
 20
78.9838
 30
0.0
 11
83.5822
 21
92.9831
 31
0.0
  0
LINE
  8
0
 62
     0
 10
102.632
 20
92.9831
 30
0.0
 11
116.632
 21
92.9831
 31
0.0
  0
LINE
  8
0
 62
     0
 10
116.632
 20
92.9831
 30
0.0
 11
116.632
 21
78.9838
 31
0.0
  0
LINE
  8
0
 62
     0
 10
116.632
 20
78.9838
 30
0.0
 11
102.632
 21
78.9838
 31
0.0
  0
LINE
  8
0
 62
     0
 10
102.632
 20
78.9838
 30
0.0
 11
102.632
 21
92.9831
 31
0.0
  0
LINE
  8
0
 62
     0
 10
121.682
 20
92.9831
 30
0.0
 11
135.682
 21
92.9831
 31
0.0
  0
LINE
  8
0
 62
     0
 10
135.682
 20
92.9831
 30
0.0
 11
135.682
 21
78.9838
 31
0.0
  0
LINE
  8
0
 62
     0
 10
135.682
 20
78.9838
 30
0.0
 11
121.682
 21
78.9838
 31
0.0
  0
LINE
  8
0
 62
     0
 10
121.682
 20
78.9838
 30
0.0
 11
121.682
 21
92.9831
 31
0.0
  0
LINE
  8
0
 62
     0
 10
140.732
 20
92.9831
 30
0.0
 11
154.732
 21
92.9831
 31
0.0
  0
LINE
  8
0
 62
     0
 10
154.732
 20
92.9831
 30
0.0
 11
154.732
 21
78.9838
 31
0.0
  0
LINE
  8
0
 62
     0
 10
154.732
 20
78.9838
 30
0.0
 11
140.732
 21
78.9838
 31
0.0
  0
LINE
  8
0
 62
     0
 10
140.732
 20
78.9838
 30
0.0
 11
140.732
 21
92.9831
 31
0.0
  0
ENDSEC
  0
EOF
