  0
SECTION
  2
HEADER
  9
$ACADVER
  1
AC1009
  9
$FILLMODE
 70
 0
  9
$SPLFRAME
 70
 1
  9
$EXTMIN
 10
0
 20
0
 30
0.0
  9
$EXTMAX
 10
1058.33
 20
1058.33
 30
0.0
  0
ENDSEC
  0
SECTION
  2
TABLES
  0
TABLE
  2
LAYER
 70
1
  0
LAYER
  2
0
 70
     0
 62
     7
  6
CONTINUOUS
  0
ENDTAB
  0
ENDSEC
  0
SECTION
  2
ENTITIES
  0
LINE
  8
0
 62
     0
 10
0.0950846
 20
95.5075
 30
0.0
 11
162.02
 21
95.5075
 31
0.0
  0
LINE
  8
0
 62
     0
 10
162.02
 20
95.5075
 30
0.0
 11
162.02
 21
0.257693
 31
0.0
  0
LINE
  8
0
 62
     0
 10
162.02
 20
0.257693
 30
0.0
 11
0.0950846
 21
0.257693
 31
0.0
  0
LINE
  8
0
 62
     0
 10
0.0950846
 20
0.257693
 30
0.0
 11
0.0950846
 21
95.5075
 31
0.0
  0
LINE
  8
0
 62
     0
 10
33.5759
 20
16.7831
 30
0.0
 11
33.5759
 21
12.0826
 31
0.0
  0
LINE
  8
0
 62
     0
 10
33.5759
 20
12.0826
 30
0.0
 11
32.0504
 21
12.0826
 31
0.0
  0
LINE
  8
0
 62
     0
 10
32.0504
 20
12.0826
 30
0.0
 11
32.0504
 21
15.3128
 31
0.0
  0
LINE
  8
0
 62
     0
 10
32.0504
 20
15.3128
 30
0.0
 11
30.3251
 21
15.3128
 31
0.0
  0
LINE
  8
0
 62
     0
 10
30.3251
 20
15.3128
 30
0.0
 11
30.3251
 21
16.2347
 31
0.0
  0
LINE
  8
0
 62
     0
 10
30.3251
 20
16.2347
 30
0.0
 11
27.0261
 21
16.2347
 31
0.0
  0
LINE
  8
0
 62
     0
 10
27.0261
 20
16.2347
 30
0.0
 11
27.0261
 21
15.3128
 31
0.0
  0
LINE
  8
0
 62
     0
 10
27.0261
 20
15.3128
 30
0.0
 11
25.3008
 21
15.3128
 31
0.0
  0
LINE
  8
0
 62
     0
 10
25.3008
 20
15.3128
 30
0.0
 11
25.3008
 21
12.0826
 31
0.0
  0
LINE
  8
0
 62
     0
 10
25.3008
 20
12.0826
 30
0.0
 11
24.4753
 21
12.0826
 31
0.0
  0
LINE
  8
0
 62
     0
 10
24.4753
 20
12.0826
 30
0.0
 11
24.4753
 21
9.28384
 31
0.0
  0
LINE
  8
0
 62
     0
 10
24.4753
 20
9.28384
 30
0.0
 11
25.3008
 21
9.28384
 31
0.0
  0
LINE
  8
0
 62
     0
 10
25.3008
 20
9.28384
 30
0.0
 11
25.3008
 21
3.01377
 31
0.0
  0
LINE
  8
0
 62
     0
 10
25.3008
 20
3.01377
 30
0.0
 11
27.0261
 21
3.01377
 31
0.0
  0
LINE
  8
0
 62
     0
 10
27.0261
 20
3.01377
 30
0.0
 11
27.0261
 21
2.03261
 31
0.0
  0
LINE
  8
0
 62
     0
 10
27.0261
 20
2.03261
 30
0.0
 11
30.3251
 21
2.03261
 31
0.0
  0
LINE
  8
0
 62
     0
 10
30.3251
 20
2.03261
 30
0.0
 11
30.3251
 21
3.01377
 31
0.0
  0
LINE
  8
0
 62
     0
 10
30.3251
 20
3.01377
 30
0.0
 11
32.0504
 21
3.01377
 31
0.0
  0
LINE
  8
0
 62
     0
 10
32.0504
 20
3.01377
 30
0.0
 11
32.0504
 21
7.48411
 31
0.0
  0
LINE
  8
0
 62
     0
 10
32.0504
 20
7.48411
 30
0.0
 11
33.5759
 21
7.48411
 31
0.0
  0
LINE
  8
0
 62
     0
 10
33.5759
 20
7.48411
 30
0.0
 11
33.5759
 21
2.78364
 31
0.0
  0
LINE
  8
0
 62
     0
 10
33.5759
 20
2.78364
 30
0.0
 11
47.5753
 21
2.78364
 31
0.0
  0
LINE
  8
0
 62
     0
 10
47.5753
 20
2.78364
 30
0.0
 11
47.5753
 21
7.48411
 31
0.0
  0
LINE
  8
0
 62
     0
 10
47.5753
 20
7.48411
 30
0.0
 11
49.101
 21
7.48411
 31
0.0
  0
LINE
  8
0
 62
     0
 10
49.101
 20
7.48411
 30
0.0
 11
49.101
 21
3.01377
 31
0.0
  0
LINE
  8
0
 62
     0
 10
49.101
 20
3.01377
 30
0.0
 11
50.8247
 21
3.01377
 31
0.0
  0
LINE
  8
0
 62
     0
 10
50.8247
 20
3.01377
 30
0.0
 11
50.8247
 21
2.03261
 31
0.0
  0
LINE
  8
0
 62
     0
 10
50.8247
 20
2.03261
 30
0.0
 11
54.1253
 21
2.03261
 31
0.0
  0
LINE
  8
0
 62
     0
 10
54.1253
 20
2.03261
 30
0.0
 11
54.1253
 21
3.01377
 31
0.0
  0
LINE
  8
0
 62
     0
 10
54.1253
 20
3.01377
 30
0.0
 11
55.8504
 21
3.01377
 31
0.0
  0
LINE
  8
0
 62
     0
 10
55.8504
 20
3.01377
 30
0.0
 11
55.8504
 21
9.28384
 31
0.0
  0
LINE
  8
0
 62
     0
 10
55.8504
 20
9.28384
 30
0.0
 11
56.6759
 21
9.28384
 31
0.0
  0
LINE
  8
0
 62
     0
 10
56.6759
 20
9.28384
 30
0.0
 11
56.6759
 21
12.0826
 31
0.0
  0
LINE
  8
0
 62
     0
 10
56.6759
 20
12.0826
 30
0.0
 11
55.8504
 21
12.0826
 31
0.0
  0
LINE
  8
0
 62
     0
 10
55.8504
 20
12.0826
 30
0.0
 11
55.8504
 21
15.3128
 31
0.0
  0
LINE
  8
0
 62
     0
 10
55.8504
 20
15.3128
 30
0.0
 11
54.1253
 21
15.3128
 31
0.0
  0
LINE
  8
0
 62
     0
 10
54.1253
 20
15.3128
 30
0.0
 11
54.1253
 21
16.2347
 31
0.0
  0
LINE
  8
0
 62
     0
 10
54.1253
 20
16.2347
 30
0.0
 11
50.8247
 21
16.2347
 31
0.0
  0
LINE
  8
0
 62
     0
 10
50.8247
 20
16.2347
 30
0.0
 11
50.8247
 21
15.3128
 31
0.0
  0
LINE
  8
0
 62
     0
 10
50.8247
 20
15.3128
 30
0.0
 11
49.101
 21
15.3128
 31
0.0
  0
LINE
  8
0
 62
     0
 10
49.101
 20
15.3128
 30
0.0
 11
49.101
 21
12.0826
 31
0.0
  0
LINE
  8
0
 62
     0
 10
49.101
 20
12.0826
 30
0.0
 11
47.5753
 21
12.0826
 31
0.0
  0
LINE
  8
0
 62
     0
 10
47.5753
 20
12.0826
 30
0.0
 11
47.5753
 21
16.7831
 31
0.0
  0
LINE
  8
0
 62
     0
 10
47.5753
 20
16.7831
 30
0.0
 11
33.5759
 21
16.7831
 31
0.0
  0
LINE
  8
0
 62
     0
 10
71.676
 20
16.7831
 30
0.0
 11
85.6753
 21
16.7831
 31
0.0
  0
LINE
  8
0
 62
     0
 10
85.6753
 20
16.7831
 30
0.0
 11
85.6753
 21
2.78364
 31
0.0
  0
LINE
  8
0
 62
     0
 10
85.6753
 20
2.78364
 30
0.0
 11
71.676
 21
2.78364
 31
0.0
  0
LINE
  8
0
 62
     0
 10
71.676
 20
2.78364
 30
0.0
 11
71.676
 21
16.7831
 31
0.0
  0
LINE
  8
0
 62
     0
 10
95.4871
 20
16.7831
 30
0.0
 11
109.488
 21
16.7831
 31
0.0
  0
LINE
  8
0
 62
     0
 10
109.488
 20
16.7831
 30
0.0
 11
109.488
 21
2.78364
 31
0.0
  0
LINE
  8
0
 62
     0
 10
109.488
 20
2.78364
 30
0.0
 11
95.4871
 21
2.78364
 31
0.0
  0
LINE
  8
0
 62
     0
 10
95.4871
 20
2.78364
 30
0.0
 11
95.4871
 21
16.7831
 31
0.0
  0
LINE
  8
0
 62
     0
 10
119.301
 20
16.7831
 30
0.0
 11
133.3
 21
16.7831
 31
0.0
  0
LINE
  8
0
 62
     0
 10
133.3
 20
16.7831
 30
0.0
 11
133.3
 21
2.78364
 31
0.0
  0
LINE
  8
0
 62
     0
 10
133.3
 20
2.78364
 30
0.0
 11
119.301
 21
2.78364
 31
0.0
  0
LINE
  8
0
 62
     0
 10
119.301
 20
2.78364
 30
0.0
 11
119.301
 21
16.7831
 31
0.0
  0
LINE
  8
0
 62
     0
 10
143.112
 20
16.7831
 30
0.0
 11
157.113
 21
16.7831
 31
0.0
  0
LINE
  8
0
 62
     0
 10
157.113
 20
16.7831
 30
0.0
 11
157.113
 21
2.78364
 31
0.0
  0
LINE
  8
0
 62
     0
 10
157.113
 20
2.78364
 30
0.0
 11
143.112
 21
2.78364
 31
0.0
  0
LINE
  8
0
 62
     0
 10
143.112
 20
2.78364
 30
0.0
 11
143.112
 21
16.7831
 31
0.0
  0
LINE
  8
0
 62
     0
 10
128.826
 20
35.833
 30
0.0
 11
128.826
 21
31.1326
 31
0.0
  0
LINE
  8
0
 62
     0
 10
128.826
 20
31.1326
 30
0.0
 11
127.301
 21
31.1326
 31
0.0
  0
LINE
  8
0
 62
     0
 10
127.301
 20
31.1326
 30
0.0
 11
127.301
 21
34.3628
 31
0.0
  0
LINE
  8
0
 62
     0
 10
127.301
 20
34.3628
 30
0.0
 11
125.575
 21
34.3628
 31
0.0
  0
LINE
  8
0
 62
     0
 10
125.575
 20
34.3628
 30
0.0
 11
125.575
 21
35.2848
 31
0.0
  0
LINE
  8
0
 62
     0
 10
125.575
 20
35.2848
 30
0.0
 11
122.276
 21
35.2848
 31
0.0
  0
LINE
  8
0
 62
     0
 10
122.276
 20
35.2848
 30
0.0
 11
122.276
 21
34.3628
 31
0.0
  0
LINE
  8
0
 62
     0
 10
122.276
 20
34.3628
 30
0.0
 11
120.551
 21
34.3628
 31
0.0
  0
LINE
  8
0
 62
     0
 10
120.551
 20
34.3628
 30
0.0
 11
120.551
 21
31.1326
 31
0.0
  0
LINE
  8
0
 62
     0
 10
120.551
 20
31.1326
 30
0.0
 11
119.725
 21
31.1326
 31
0.0
  0
LINE
  8
0
 62
     0
 10
119.725
 20
31.1326
 30
0.0
 11
119.725
 21
28.3338
 31
0.0
  0
LINE
  8
0
 62
     0
 10
119.725
 20
28.3338
 30
0.0
 11
120.551
 21
28.3338
 31
0.0
  0
LINE
  8
0
 62
     0
 10
120.551
 20
28.3338
 30
0.0
 11
120.551
 21
22.0638
 31
0.0
  0
LINE
  8
0
 62
     0
 10
120.551
 20
22.0638
 30
0.0
 11
122.276
 21
22.0638
 31
0.0
  0
LINE
  8
0
 62
     0
 10
122.276
 20
22.0638
 30
0.0
 11
122.276
 21
21.0826
 31
0.0
  0
LINE
  8
0
 62
     0
 10
122.276
 20
21.0826
 30
0.0
 11
125.575
 21
21.0826
 31
0.0
  0
LINE
  8
0
 62
     0
 10
125.575
 20
21.0826
 30
0.0
 11
125.575
 21
22.0638
 31
0.0
  0
LINE
  8
0
 62
     0
 10
125.575
 20
22.0638
 30
0.0
 11
127.301
 21
22.0638
 31
0.0
  0
LINE
  8
0
 62
     0
 10
127.301
 20
22.0638
 30
0.0
 11
127.301
 21
26.5327
 31
0.0
  0
LINE
  8
0
 62
     0
 10
127.301
 20
26.5327
 30
0.0
 11
128.826
 21
26.5327
 31
0.0
  0
LINE
  8
0
 62
     0
 10
128.826
 20
26.5327
 30
0.0
 11
128.826
 21
21.8336
 31
0.0
  0
LINE
  8
0
 62
     0
 10
128.826
 20
21.8336
 30
0.0
 11
142.825
 21
21.8336
 31
0.0
  0
LINE
  8
0
 62
     0
 10
142.825
 20
21.8336
 30
0.0
 11
142.825
 21
26.5327
 31
0.0
  0
LINE
  8
0
 62
     0
 10
142.825
 20
26.5327
 30
0.0
 11
144.351
 21
26.5327
 31
0.0
  0
LINE
  8
0
 62
     0
 10
144.351
 20
26.5327
 30
0.0
 11
144.351
 21
22.0638
 31
0.0
  0
LINE
  8
0
 62
     0
 10
144.351
 20
22.0638
 30
0.0
 11
146.075
 21
22.0638
 31
0.0
  0
LINE
  8
0
 62
     0
 10
146.075
 20
22.0638
 30
0.0
 11
146.075
 21
21.0826
 31
0.0
  0
LINE
  8
0
 62
     0
 10
146.075
 20
21.0826
 30
0.0
 11
149.375
 21
21.0826
 31
0.0
  0
LINE
  8
0
 62
     0
 10
149.375
 20
21.0826
 30
0.0
 11
149.375
 21
22.0638
 31
0.0
  0
LINE
  8
0
 62
     0
 10
149.375
 20
22.0638
 30
0.0
 11
151.1
 21
22.0638
 31
0.0
  0
LINE
  8
0
 62
     0
 10
151.1
 20
22.0638
 30
0.0
 11
151.1
 21
28.3338
 31
0.0
  0
LINE
  8
0
 62
     0
 10
151.1
 20
28.3338
 30
0.0
 11
151.926
 21
28.3338
 31
0.0
  0
LINE
  8
0
 62
     0
 10
151.926
 20
28.3338
 30
0.0
 11
151.926
 21
31.1326
 31
0.0
  0
LINE
  8
0
 62
     0
 10
151.926
 20
31.1326
 30
0.0
 11
151.1
 21
31.1326
 31
0.0
  0
LINE
  8
0
 62
     0
 10
151.1
 20
31.1326
 30
0.0
 11
151.1
 21
34.3628
 31
0.0
  0
LINE
  8
0
 62
     0
 10
151.1
 20
34.3628
 30
0.0
 11
149.375
 21
34.3628
 31
0.0
  0
LINE
  8
0
 62
     0
 10
149.375
 20
34.3628
 30
0.0
 11
149.375
 21
35.2848
 31
0.0
  0
LINE
  8
0
 62
     0
 10
149.375
 20
35.2848
 30
0.0
 11
146.075
 21
35.2848
 31
0.0
  0
LINE
  8
0
 62
     0
 10
146.075
 20
35.2848
 30
0.0
 11
146.075
 21
34.3628
 31
0.0
  0
LINE
  8
0
 62
     0
 10
146.075
 20
34.3628
 30
0.0
 11
144.351
 21
34.3628
 31
0.0
  0
LINE
  8
0
 62
     0
 10
144.351
 20
34.3628
 30
0.0
 11
144.351
 21
31.1326
 31
0.0
  0
LINE
  8
0
 62
     0
 10
144.351
 20
31.1326
 30
0.0
 11
142.825
 21
31.1326
 31
0.0
  0
LINE
  8
0
 62
     0
 10
142.825
 20
31.1326
 30
0.0
 11
142.825
 21
35.833
 31
0.0
  0
LINE
  8
0
 62
     0
 10
142.825
 20
35.833
 30
0.0
 11
128.826
 21
35.833
 31
0.0
  0
LINE
  8
0
 62
     0
 10
16.9072
 20
35.833
 30
0.0
 11
30.9066
 21
35.833
 31
0.0
  0
LINE
  8
0
 62
     0
 10
30.9066
 20
35.833
 30
0.0
 11
30.9066
 21
21.8336
 31
0.0
  0
LINE
  8
0
 62
     0
 10
30.9066
 20
21.8336
 30
0.0
 11
16.9072
 21
21.8336
 31
0.0
  0
LINE
  8
0
 62
     0
 10
16.9072
 20
21.8336
 30
0.0
 11
16.9072
 21
35.833
 31
0.0
  0
LINE
  8
0
 62
     0
 10
35.9572
 20
35.833
 30
0.0
 11
49.9565
 21
35.833
 31
0.0
  0
LINE
  8
0
 62
     0
 10
49.9565
 20
35.833
 30
0.0
 11
49.9565
 21
21.8336
 31
0.0
  0
LINE
  8
0
 62
     0
 10
49.9565
 20
21.8336
 30
0.0
 11
35.9572
 21
21.8336
 31
0.0
  0
LINE
  8
0
 62
     0
 10
35.9572
 20
21.8336
 30
0.0
 11
35.9572
 21
35.833
 31
0.0
  0
LINE
  8
0
 62
     0
 10
55.0072
 20
35.833
 30
0.0
 11
69.0065
 21
35.833
 31
0.0
  0
LINE
  8
0
 62
     0
 10
69.0065
 20
35.833
 30
0.0
 11
69.0065
 21
21.8336
 31
0.0
  0
LINE
  8
0
 62
     0
 10
69.0065
 20
21.8336
 30
0.0
 11
55.0072
 21
21.8336
 31
0.0
  0
LINE
  8
0
 62
     0
 10
55.0072
 20
21.8336
 30
0.0
 11
55.0072
 21
35.833
 31
0.0
  0
LINE
  8
0
 62
     0
 10
74.0572
 20
35.833
 30
0.0
 11
88.0565
 21
35.833
 31
0.0
  0
LINE
  8
0
 62
     0
 10
88.0565
 20
35.833
 30
0.0
 11
88.0565
 21
21.8336
 31
0.0
  0
LINE
  8
0
 62
     0
 10
88.0565
 20
21.8336
 30
0.0
 11
74.0572
 21
21.8336
 31
0.0
  0
LINE
  8
0
 62
     0
 10
74.0572
 20
21.8336
 30
0.0
 11
74.0572
 21
35.833
 31
0.0
  0
LINE
  8
0
 62
     0
 10
93.1072
 20
35.833
 30
0.0
 11
107.107
 21
35.833
 31
0.0
  0
LINE
  8
0
 62
     0
 10
107.107
 20
35.833
 30
0.0
 11
107.107
 21
21.8336
 31
0.0
  0
LINE
  8
0
 62
     0
 10
107.107
 20
21.8336
 30
0.0
 11
93.1072
 21
21.8336
 31
0.0
  0
LINE
  8
0
 62
     0
 10
93.1072
 20
21.8336
 30
0.0
 11
93.1072
 21
35.833
 31
0.0
  0
LINE
  8
0
 62
     0
 10
133.587
 20
54.8831
 30
0.0
 11
133.587
 21
50.1826
 31
0.0
  0
LINE
  8
0
 62
     0
 10
133.587
 20
50.1826
 30
0.0
 11
132.063
 21
50.1826
 31
0.0
  0
LINE
  8
0
 62
     0
 10
132.063
 20
50.1826
 30
0.0
 11
132.063
 21
53.4127
 31
0.0
  0
LINE
  8
0
 62
     0
 10
132.063
 20
53.4127
 30
0.0
 11
130.338
 21
53.4127
 31
0.0
  0
LINE
  8
0
 62
     0
 10
130.338
 20
53.4127
 30
0.0
 11
130.338
 21
54.3334
 31
0.0
  0
LINE
  8
0
 62
     0
 10
130.338
 20
54.3334
 30
0.0
 11
127.037
 21
54.3334
 31
0.0
  0
LINE
  8
0
 62
     0
 10
127.037
 20
54.3334
 30
0.0
 11
127.037
 21
53.4127
 31
0.0
  0
LINE
  8
0
 62
     0
 10
127.037
 20
53.4127
 30
0.0
 11
125.312
 21
53.4127
 31
0.0
  0
LINE
  8
0
 62
     0
 10
125.312
 20
53.4127
 30
0.0
 11
125.312
 21
50.1826
 31
0.0
  0
LINE
  8
0
 62
     0
 10
125.312
 20
50.1826
 30
0.0
 11
124.488
 21
50.1826
 31
0.0
  0
LINE
  8
0
 62
     0
 10
124.488
 20
50.1826
 30
0.0
 11
124.488
 21
47.3837
 31
0.0
  0
LINE
  8
0
 62
     0
 10
124.488
 20
47.3837
 30
0.0
 11
125.312
 21
47.3837
 31
0.0
  0
LINE
  8
0
 62
     0
 10
125.312
 20
47.3837
 30
0.0
 11
125.312
 21
41.1138
 31
0.0
  0
LINE
  8
0
 62
     0
 10
125.312
 20
41.1138
 30
0.0
 11
127.037
 21
41.1138
 31
0.0
  0
LINE
  8
0
 62
     0
 10
127.037
 20
41.1138
 30
0.0
 11
127.037
 21
40.1327
 31
0.0
  0
LINE
  8
0
 62
     0
 10
127.037
 20
40.1327
 30
0.0
 11
130.338
 21
40.1327
 31
0.0
  0
LINE
  8
0
 62
     0
 10
130.338
 20
40.1327
 30
0.0
 11
130.338
 21
41.1138
 31
0.0
  0
LINE
  8
0
 62
     0
 10
130.338
 20
41.1138
 30
0.0
 11
132.063
 21
41.1138
 31
0.0
  0
LINE
  8
0
 62
     0
 10
132.063
 20
41.1138
 30
0.0
 11
132.063
 21
45.5828
 31
0.0
  0
LINE
  8
0
 62
     0
 10
132.063
 20
45.5828
 30
0.0
 11
133.587
 21
45.5828
 31
0.0
  0
LINE
  8
0
 62
     0
 10
133.587
 20
45.5828
 30
0.0
 11
133.587
 21
40.8838
 31
0.0
  0
LINE
  8
0
 62
     0
 10
133.587
 20
40.8838
 30
0.0
 11
147.588
 21
40.8838
 31
0.0
  0
LINE
  8
0
 62
     0
 10
147.588
 20
40.8838
 30
0.0
 11
147.588
 21
45.5828
 31
0.0
  0
LINE
  8
0
 62
     0
 10
147.588
 20
45.5828
 30
0.0
 11
149.112
 21
45.5828
 31
0.0
  0
LINE
  8
0
 62
     0
 10
149.112
 20
45.5828
 30
0.0
 11
149.112
 21
41.1138
 31
0.0
  0
LINE
  8
0
 62
     0
 10
149.112
 20
41.1138
 30
0.0
 11
150.837
 21
41.1138
 31
0.0
  0
LINE
  8
0
 62
     0
 10
150.837
 20
41.1138
 30
0.0
 11
150.837
 21
40.1327
 31
0.0
  0
LINE
  8
0
 62
     0
 10
150.837
 20
40.1327
 30
0.0
 11
154.138
 21
40.1327
 31
0.0
  0
LINE
  8
0
 62
     0
 10
154.138
 20
40.1327
 30
0.0
 11
154.138
 21
41.1138
 31
0.0
  0
LINE
  8
0
 62
     0
 10
154.138
 20
41.1138
 30
0.0
 11
155.863
 21
41.1138
 31
0.0
  0
LINE
  8
0
 62
     0
 10
155.863
 20
41.1138
 30
0.0
 11
155.863
 21
47.3837
 31
0.0
  0
LINE
  8
0
 62
     0
 10
155.863
 20
47.3837
 30
0.0
 11
156.687
 21
47.3837
 31
0.0
  0
LINE
  8
0
 62
     0
 10
156.687
 20
47.3837
 30
0.0
 11
156.687
 21
50.1826
 31
0.0
  0
LINE
  8
0
 62
     0
 10
156.687
 20
50.1826
 30
0.0
 11
155.863
 21
50.1826
 31
0.0
  0
LINE
  8
0
 62
     0
 10
155.863
 20
50.1826
 30
0.0
 11
155.863
 21
53.4127
 31
0.0
  0
LINE
  8
0
 62
     0
 10
155.863
 20
53.4127
 30
0.0
 11
154.138
 21
53.4127
 31
0.0
  0
LINE
  8
0
 62
     0
 10
154.138
 20
53.4127
 30
0.0
 11
154.138
 21
54.3334
 31
0.0
  0
LINE
  8
0
 62
     0
 10
154.138
 20
54.3334
 30
0.0
 11
150.837
 21
54.3334
 31
0.0
  0
LINE
  8
0
 62
     0
 10
150.837
 20
54.3334
 30
0.0
 11
150.837
 21
53.4127
 31
0.0
  0
LINE
  8
0
 62
     0
 10
150.837
 20
53.4127
 30
0.0
 11
149.112
 21
53.4127
 31
0.0
  0
LINE
  8
0
 62
     0
 10
149.112
 20
53.4127
 30
0.0
 11
149.112
 21
50.1826
 31
0.0
  0
LINE
  8
0
 62
     0
 10
149.112
 20
50.1826
 30
0.0
 11
147.588
 21
50.1826
 31
0.0
  0
LINE
  8
0
 62
     0
 10
147.588
 20
50.1826
 30
0.0
 11
147.588
 21
54.8831
 31
0.0
  0
LINE
  8
0
 62
     0
 10
147.588
 20
54.8831
 30
0.0
 11
133.587
 21
54.8831
 31
0.0
  0
LINE
  8
0
 62
     0
 10
7.38216
 20
54.8831
 30
0.0
 11
21.3817
 21
54.8831
 31
0.0
  0
LINE
  8
0
 62
     0
 10
21.3817
 20
54.8831
 30
0.0
 11
21.3817
 21
40.8838
 31
0.0
  0
LINE
  8
0
 62
     0
 10
21.3817
 20
40.8838
 30
0.0
 11
7.38216
 21
40.8838
 31
0.0
  0
LINE
  8
0
 62
     0
 10
7.38216
 20
40.8838
 30
0.0
 11
7.38216
 21
54.8831
 31
0.0
  0
LINE
  8
0
 62
     0
 10
26.4322
 20
54.8831
 30
0.0
 11
40.4315
 21
54.8831
 31
0.0
  0
LINE
  8
0
 62
     0
 10
40.4315
 20
54.8831
 30
0.0
 11
40.4315
 21
40.8838
 31
0.0
  0
LINE
  8
0
 62
     0
 10
40.4315
 20
40.8838
 30
0.0
 11
26.4322
 21
40.8838
 31
0.0
  0
LINE
  8
0
 62
     0
 10
26.4322
 20
40.8838
 30
0.0
 11
26.4322
 21
54.8831
 31
0.0
  0
LINE
  8
0
 62
     0
 10
45.4822
 20
54.8831
 30
0.0
 11
59.4815
 21
54.8831
 31
0.0
  0
LINE
  8
0
 62
     0
 10
59.4815
 20
54.8831
 30
0.0
 11
59.4815
 21
40.8838
 31
0.0
  0
LINE
  8
0
 62
     0
 10
59.4815
 20
40.8838
 30
0.0
 11
45.4822
 21
40.8838
 31
0.0
  0
LINE
  8
0
 62
     0
 10
45.4822
 20
40.8838
 30
0.0
 11
45.4822
 21
54.8831
 31
0.0
  0
LINE
  8
0
 62
     0
 10
64.5322
 20
54.8831
 30
0.0
 11
78.5315
 21
54.8831
 31
0.0
  0
LINE
  8
0
 62
     0
 10
78.5315
 20
54.8831
 30
0.0
 11
78.5315
 21
40.8838
 31
0.0
  0
LINE
  8
0
 62
     0
 10
78.5315
 20
40.8838
 30
0.0
 11
64.5322
 21
40.8838
 31
0.0
  0
LINE
  8
0
 62
     0
 10
64.5322
 20
40.8838
 30
0.0
 11
64.5322
 21
54.8831
 31
0.0
  0
LINE
  8
0
 62
     0
 10
83.5822
 20
54.8831
 30
0.0
 11
97.5815
 21
54.8831
 31
0.0
  0
LINE
  8
0
 62
     0
 10
97.5815
 20
54.8831
 30
0.0
 11
97.5815
 21
40.8838
 31
0.0
  0
LINE
  8
0
 62
     0
 10
97.5815
 20
40.8838
 30
0.0
 11
83.5822
 21
40.8838
 31
0.0
  0
LINE
  8
0
 62
     0
 10
83.5822
 20
40.8838
 30
0.0
 11
83.5822
 21
54.8831
 31
0.0
  0
LINE
  8
0
 62
     0
 10
102.632
 20
54.8831
 30
0.0
 11
116.632
 21
54.8831
 31
0.0
  0
LINE
  8
0
 62
     0
 10
116.632
 20
54.8831
 30
0.0
 11
116.632
 21
40.8838
 31
0.0
  0
LINE
  8
0
 62
     0
 10
116.632
 20
40.8838
 30
0.0
 11
102.632
 21
40.8838
 31
0.0
  0
LINE
  8
0
 62
     0
 10
102.632
 20
40.8838
 30
0.0
 11
102.632
 21
54.8831
 31
0.0
  0
LINE
  8
0
 62
     0
 10
2.61965
 20
73.9331
 30
0.0
 11
16.6192
 21
73.9331
 31
0.0
  0
LINE
  8
0
 62
     0
 10
16.6192
 20
73.9331
 30
0.0
 11
16.6192
 21
59.9338
 31
0.0
  0
LINE
  8
0
 62
     0
 10
16.6192
 20
59.9338
 30
0.0
 11
2.61965
 21
59.9338
 31
0.0
  0
LINE
  8
0
 62
     0
 10
2.61965
 20
59.9338
 30
0.0
 11
2.61965
 21
73.9331
 31
0.0
  0
LINE
  8
0
 62
     0
 10
21.6697
 20
73.9331
 30
0.0
 11
35.669
 21
73.9331
 31
0.0
  0
LINE
  8
0
 62
     0
 10
35.669
 20
73.9331
 30
0.0
 11
35.669
 21
59.9338
 31
0.0
  0
LINE
  8
0
 62
     0
 10
35.669
 20
59.9338
 30
0.0
 11
21.6697
 21
59.9338
 31
0.0
  0
LINE
  8
0
 62
     0
 10
21.6697
 20
59.9338
 30
0.0
 11
21.6697
 21
73.9331
 31
0.0
  0
LINE
  8
0
 62
     0
 10
40.7197
 20
73.9331
 30
0.0
 11
54.719
 21
73.9331
 31
0.0
  0
LINE
  8
0
 62
     0
 10
54.719
 20
73.9331
 30
0.0
 11
54.719
 21
59.9338
 31
0.0
  0
LINE
  8
0
 62
     0
 10
54.719
 20
59.9338
 30
0.0
 11
40.7197
 21
59.9338
 31
0.0
  0
LINE
  8
0
 62
     0
 10
40.7197
 20
59.9338
 30
0.0
 11
40.7197
 21
73.9331
 31
0.0
  0
LINE
  8
0
 62
     0
 10
59.7697
 20
73.9331
 30
0.0
 11
73.769
 21
73.9331
 31
0.0
  0
LINE
  8
0
 62
     0
 10
73.769
 20
73.9331
 30
0.0
 11
73.769
 21
59.9338
 31
0.0
  0
LINE
  8
0
 62
     0
 10
73.769
 20
59.9338
 30
0.0
 11
59.7697
 21
59.9338
 31
0.0
  0
LINE
  8
0
 62
     0
 10
59.7697
 20
59.9338
 30
0.0
 11
59.7697
 21
73.9331
 31
0.0
  0
LINE
  8
0
 62
     0
 10
78.8197
 20
73.9331
 30
0.0
 11
92.819
 21
73.9331
 31
0.0
  0
LINE
  8
0
 62
     0
 10
92.819
 20
73.9331
 30
0.0
 11
92.819
 21
59.9338
 31
0.0
  0
LINE
  8
0
 62
     0
 10
92.819
 20
59.9338
 30
0.0
 11
78.8197
 21
59.9338
 31
0.0
  0
LINE
  8
0
 62
     0
 10
78.8197
 20
59.9338
 30
0.0
 11
78.8197
 21
73.9331
 31
0.0
  0
LINE
  8
0
 62
     0
 10
97.8683
 20
73.9331
 30
0.0
 11
111.869
 21
73.9331
 31
0.0
  0
LINE
  8
0
 62
     0
 10
111.869
 20
73.9331
 30
0.0
 11
111.869
 21
59.9338
 31
0.0
  0
LINE
  8
0
 62
     0
 10
111.869
 20
59.9338
 30
0.0
 11
97.8683
 21
59.9338
 31
0.0
  0
LINE
  8
0
 62
     0
 10
97.8683
 20
59.9338
 30
0.0
 11
97.8683
 21
73.9331
 31
0.0
  0
LINE
  8
0
 62
     0
 10
116.918
 20
73.9331
 30
0.0
 11
130.919
 21
73.9331
 31
0.0
  0
LINE
  8
0
 62
     0
 10
130.919
 20
73.9331
 30
0.0
 11
130.919
 21
59.9338
 31
0.0
  0
LINE
  8
0
 62
     0
 10
130.919
 20
59.9338
 30
0.0
 11
116.918
 21
59.9338
 31
0.0
  0
LINE
  8
0
 62
     0
 10
116.918
 20
59.9338
 30
0.0
 11
116.918
 21
73.9331
 31
0.0
  0
LINE
  8
0
 62
     0
 10
140.732
 20
73.9331
 30
0.0
 11
154.732
 21
73.9331
 31
0.0
  0
LINE
  8
0
 62
     0
 10
154.732
 20
73.9331
 30
0.0
 11
154.732
 21
59.9338
 31
0.0
  0
LINE
  8
0
 62
     0
 10
154.732
 20
59.9338
 30
0.0
 11
140.732
 21
59.9338
 31
0.0
  0
LINE
  8
0
 62
     0
 10
140.732
 20
59.9338
 30
0.0
 11
140.732
 21
73.9331
 31
0.0
  0
LINE
  8
0
 62
     0
 10
135.97
 20
92.9831
 30
0.0
 11
135.97
 21
88.2826
 31
0.0
  0
LINE
  8
0
 62
     0
 10
135.97
 20
88.2826
 30
0.0
 11
134.444
 21
88.2826
 31
0.0
  0
LINE
  8
0
 62
     0
 10
134.444
 20
88.2826
 30
0.0
 11
134.444
 21
91.5127
 31
0.0
  0
LINE
  8
0
 62
     0
 10
134.444
 20
91.5127
 30
0.0
 11
132.719
 21
91.5127
 31
0.0
  0
LINE
  8
0
 62
     0
 10
132.719
 20
91.5127
 30
0.0
 11
132.719
 21
92.4348
 31
0.0
  0
LINE
  8
0
 62
     0
 10
132.719
 20
92.4348
 30
0.0
 11
129.42
 21
92.4348
 31
0.0
  0
LINE
  8
0
 62
     0
 10
129.42
 20
92.4348
 30
0.0
 11
129.42
 21
91.5127
 31
0.0
  0
LINE
  8
0
 62
     0
 10
129.42
 20
91.5127
 30
0.0
 11
127.695
 21
91.5127
 31
0.0
  0
LINE
  8
0
 62
     0
 10
127.695
 20
91.5127
 30
0.0
 11
127.695
 21
88.2826
 31
0.0
  0
LINE
  8
0
 62
     0
 10
127.695
 20
88.2826
 30
0.0
 11
126.869
 21
88.2826
 31
0.0
  0
LINE
  8
0
 62
     0
 10
126.869
 20
88.2826
 30
0.0
 11
126.869
 21
85.4837
 31
0.0
  0
LINE
  8
0
 62
     0
 10
126.869
 20
85.4837
 30
0.0
 11
127.695
 21
85.4837
 31
0.0
  0
LINE
  8
0
 62
     0
 10
127.695
 20
85.4837
 30
0.0
 11
127.695
 21
79.2138
 31
0.0
  0
LINE
  8
0
 62
     0
 10
127.695
 20
79.2138
 30
0.0
 11
129.42
 21
79.2138
 31
0.0
  0
LINE
  8
0
 62
     0
 10
129.42
 20
79.2138
 30
0.0
 11
129.42
 21
78.2327
 31
0.0
  0
LINE
  8
0
 62
     0
 10
129.42
 20
78.2327
 30
0.0
 11
132.719
 21
78.2327
 31
0.0
  0
LINE
  8
0
 62
     0
 10
132.719
 20
78.2327
 30
0.0
 11
132.719
 21
79.2138
 31
0.0
  0
LINE
  8
0
 62
     0
 10
132.719
 20
79.2138
 30
0.0
 11
134.444
 21
79.2138
 31
0.0
  0
LINE
  8
0
 62
     0
 10
134.444
 20
79.2138
 30
0.0
 11
134.444
 21
83.6828
 31
0.0
  0
LINE
  8
0
 62
     0
 10
134.444
 20
83.6828
 30
0.0
 11
135.97
 21
83.6828
 31
0.0
  0
LINE
  8
0
 62
     0
 10
135.97
 20
83.6828
 30
0.0
 11
135.97
 21
78.9838
 31
0.0
  0
LINE
  8
0
 62
     0
 10
135.97
 20
78.9838
 30
0.0
 11
149.969
 21
78.9838
 31
0.0
  0
LINE
  8
0
 62
     0
 10
149.969
 20
78.9838
 30
0.0
 11
149.969
 21
83.6828
 31
0.0
  0
LINE
  8
0
 62
     0
 10
149.969
 20
83.6828
 30
0.0
 11
151.495
 21
83.6828
 31
0.0
  0
LINE
  8
0
 62
     0
 10
151.495
 20
83.6828
 30
0.0
 11
151.495
 21
79.2138
 31
0.0
  0
LINE
  8
0
 62
     0
 10
151.495
 20
79.2138
 30
0.0
 11
153.22
 21
79.2138
 31
0.0
  0
LINE
  8
0
 62
     0
 10
153.22
 20
79.2138
 30
0.0
 11
153.22
 21
78.2327
 31
0.0
  0
LINE
  8
0
 62
     0
 10
153.22
 20
78.2327
 30
0.0
 11
156.519
 21
78.2327
 31
0.0
  0
LINE
  8
0
 62
     0
 10
156.519
 20
78.2327
 30
0.0
 11
156.519
 21
79.2138
 31
0.0
  0
LINE
  8
0
 62
     0
 10
156.519
 20
79.2138
 30
0.0
 11
158.244
 21
79.2138
 31
0.0
  0
LINE
  8
0
 62
     0
 10
158.244
 20
79.2138
 30
0.0
 11
158.244
 21
85.4837
 31
0.0
  0
LINE
  8
0
 62
     0
 10
158.244
 20
85.4837
 30
0.0
 11
159.07
 21
85.4837
 31
0.0
  0
LINE
  8
0
 62
     0
 10
159.07
 20
85.4837
 30
0.0
 11
159.07
 21
88.2826
 31
0.0
  0
LINE
  8
0
 62
     0
 10
159.07
 20
88.2826
 30
0.0
 11
158.244
 21
88.2826
 31
0.0
  0
LINE
  8
0
 62
     0
 10
158.244
 20
88.2826
 30
0.0
 11
158.244
 21
91.5127
 31
0.0
  0
LINE
  8
0
 62
     0
 10
158.244
 20
91.5127
 30
0.0
 11
156.519
 21
91.5127
 31
0.0
  0
LINE
  8
0
 62
     0
 10
156.519
 20
91.5127
 30
0.0
 11
156.519
 21
92.4348
 31
0.0
  0
LINE
  8
0
 62
     0
 10
156.519
 20
92.4348
 30
0.0
 11
153.22
 21
92.4348
 31
0.0
  0
LINE
  8
0
 62
     0
 10
153.22
 20
92.4348
 30
0.0
 11
153.22
 21
91.5127
 31
0.0
  0
LINE
  8
0
 62
     0
 10
153.22
 20
91.5127
 30
0.0
 11
151.495
 21
91.5127
 31
0.0
  0
LINE
  8
0
 62
     0
 10
151.495
 20
91.5127
 30
0.0
 11
151.495
 21
88.2826
 31
0.0
  0
LINE
  8
0
 62
     0
 10
151.495
 20
88.2826
 30
0.0
 11
149.969
 21
88.2826
 31
0.0
  0
LINE
  8
0
 62
     0
 10
149.969
 20
88.2826
 30
0.0
 11
149.969
 21
92.9831
 31
0.0
  0
LINE
  8
0
 62
     0
 10
149.969
 20
92.9831
 30
0.0
 11
135.97
 21
92.9831
 31
0.0
  0
LINE
  8
0
 62
     0
 10
12.1447
 20
92.9831
 30
0.0
 11
26.1441
 21
92.9831
 31
0.0
  0
LINE
  8
0
 62
     0
 10
26.1441
 20
92.9831
 30
0.0
 11
26.1441
 21
78.9838
 31
0.0
  0
LINE
  8
0
 62
     0
 10
26.1441
 20
78.9838
 30
0.0
 11
12.1447
 21
78.9838
 31
0.0
  0
LINE
  8
0
 62
     0
 10
12.1447
 20
78.9838
 30
0.0
 11
12.1447
 21
92.9831
 31
0.0
  0
LINE
  8
0
 62
     0
 10
31.1947
 20
92.9831
 30
0.0
 11
45.194
 21
92.9831
 31
0.0
  0
LINE
  8
0
 62
     0
 10
45.194
 20
92.9831
 30
0.0
 11
45.194
 21
78.9838
 31
0.0
  0
LINE
  8
0
 62
     0
 10
45.194
 20
78.9838
 30
0.0
 11
31.1947
 21
78.9838
 31
0.0
  0
LINE
  8
0
 62
     0
 10
31.1947
 20
78.9838
 30
0.0
 11
31.1947
 21
92.9831
 31
0.0
  0
LINE
  8
0
 62
     0
 10
50.2447
 20
92.9831
 30
0.0
 11
64.244
 21
92.9831
 31
0.0
  0
LINE
  8
0
 62
     0
 10
64.244
 20
92.9831
 30
0.0
 11
64.244
 21
78.9838
 31
0.0
  0
LINE
  8
0
 62
     0
 10
64.244
 20
78.9838
 30
0.0
 11
50.2447
 21
78.9838
 31
0.0
  0
LINE
  8
0
 62
     0
 10
50.2447
 20
78.9838
 30
0.0
 11
50.2447
 21
92.9831
 31
0.0
  0
LINE
  8
0
 62
     0
 10
69.2947
 20
92.9831
 30
0.0
 11
83.294
 21
92.9831
 31
0.0
  0
LINE
  8
0
 62
     0
 10
83.294
 20
92.9831
 30
0.0
 11
83.294
 21
78.9838
 31
0.0
  0
LINE
  8
0
 62
     0
 10
83.294
 20
78.9838
 30
0.0
 11
69.2947
 21
78.9838
 31
0.0
  0
LINE
  8
0
 62
     0
 10
69.2947
 20
78.9838
 30
0.0
 11
69.2947
 21
92.9831
 31
0.0
  0
LINE
  8
0
 62
     0
 10
88.3447
 20
92.9831
 30
0.0
 11
102.344
 21
92.9831
 31
0.0
  0
LINE
  8
0
 62
     0
 10
102.344
 20
92.9831
 30
0.0
 11
102.344
 21
78.9838
 31
0.0
  0
LINE
  8
0
 62
     0
 10
102.344
 20
78.9838
 30
0.0
 11
88.3447
 21
78.9838
 31
0.0
  0
LINE
  8
0
 62
     0
 10
88.3447
 20
78.9838
 30
0.0
 11
88.3447
 21
92.9831
 31
0.0
  0
LINE
  8
0
 62
     0
 10
107.395
 20
92.9831
 30
0.0
 11
121.394
 21
92.9831
 31
0.0
  0
LINE
  8
0
 62
     0
 10
121.394
 20
92.9831
 30
0.0
 11
121.394
 21
78.9838
 31
0.0
  0
LINE
  8
0
 62
     0
 10
121.394
 20
78.9838
 30
0.0
 11
107.395
 21
78.9838
 31
0.0
  0
LINE
  8
0
 62
     0
 10
107.395
 20
78.9838
 30
0.0
 11
107.395
 21
92.9831
 31
0.0
  0
ENDSEC
  0
EOF
